<?xml version="1.0" encoding="utf-8"?>
<!-- Generator: Adobe Illustrator 27.5.0, SVG Export Plug-In . SVG Version: 6.00 Build 0)  -->
<svg version="1.1" id="Layer_1" xmlns="http://www.w3.org/2000/svg" xmlns:xlink="http://www.w3.org/1999/xlink" x="0px" y="0px"
	 viewBox="0 0 2599 1733" style="enable-background:new 0 0 2599 1733;" xml:space="preserve">
<g>
	<rect style="fill:#FFF6EE;" width="2598.076" height="1732.051"/>
	<g>
		<g>
			<path style="fill:#FF8894;" d="M296.06,1122.628c-8.459-5.778-15.992,0.605-28.599,2.261
				c-18.496,2.43-22.891,12.943-17.495,19.681c5.396,6.738,16.63,3.28,23.845,8.71c0.022,0.017,0.045,0.034,0.067,0.05
				c0.023,0.016,0.046,0.032,0.069,0.048c7.422,5.143,7.667,16.895,15.759,19.902c8.091,3.008,16.693-4.469,13.191-22.791
				C300.508,1138.001,304.202,1128.845,296.06,1122.628z"/>
			<path style="fill:#FF8894;" d="M280.471,1102c0.031,9.63-4.977,17.452-11.185,17.472c-6.208,0.02-11.266-7.771-11.296-17.4
				c-0.031-9.63,4.977-17.452,11.185-17.472C275.383,1084.58,280.441,1092.371,280.471,1102z"/>
			<path style="fill:#FF8894;" d="M320.539,1130.949c-9.152,2.996-15.006,10.207-13.075,16.107c1.931,5.9,10.915,8.255,20.068,5.259
				c9.152-2.995,15.006-10.207,13.075-16.106C338.676,1130.309,329.692,1127.954,320.539,1130.949z"/>
			<path style="fill:#FF8894;" d="M309.829,1099.04c-4.412,9.147-12.769,14.256-18.666,11.412c-5.897-2.844-7.1-12.565-2.688-21.712
				c4.412-9.147,12.769-14.256,18.666-11.412C313.038,1080.172,314.241,1089.892,309.829,1099.04z"/>
			<path style="fill:#FF8894;" d="M314.13,1102.147c-7.298,7.062-9.524,16.6-4.972,21.306c4.552,4.705,14.159,2.795,21.458-4.267
				c7.299-7.061,9.525-16.6,4.973-21.305C331.036,1093.175,321.429,1095.086,314.13,1102.147z"/>
		</g>
		<g>
			<path style="fill:#FF8894;" d="M321.575,1381.732c-7.975,6.431-4.037,15.486-6.091,28.034
				c-3.013,18.41,5.784,25.654,13.793,22.432c8.009-3.222,7.941-14.976,15.223-20.315c0.023-0.016,0.045-0.033,0.068-0.049
				c0.022-0.017,0.043-0.035,0.065-0.052c7.067-5.621,18.389-2.463,23.604-9.342c5.215-6.88,0.54-17.272-18.013-19.208
				C337.577,1381.91,329.878,1375.73,321.575,1381.732z"/>
			<path style="fill:#FF8894;" d="M297.325,1390.702c9.229,2.75,15.273,9.803,13.5,15.753c-1.773,5.95-10.692,8.543-19.92,5.792
				c-9.229-2.75-15.273-9.803-13.5-15.753C279.178,1390.545,288.097,1387.951,297.325,1390.702z"/>
			<path style="fill:#FF8894;" d="M336.608,1360.696c0.226,9.627,5.44,17.313,11.646,17.168c6.206-0.146,11.054-8.068,10.829-17.695
				c-0.226-9.627-5.44-17.313-11.647-17.168C341.231,1343.146,336.382,1351.069,336.608,1360.696z"/>
			<path style="fill:#FF8894;" d="M302.965,1361.739c7.484,6.865,9.964,16.341,5.538,21.165c-4.425,4.825-14.08,3.171-21.564-3.693
				c-7.484-6.865-9.963-16.341-5.538-21.166C285.827,1353.221,295.481,1354.875,302.965,1361.739z"/>
			<path style="fill:#FF8894;" d="M307.182,1358.518c4.654,9.026,13.144,13.911,18.963,10.911c5.819-3,6.763-12.75,2.109-21.776
				c-4.654-9.026-13.144-13.911-18.963-10.911C303.472,1339.742,302.528,1349.491,307.182,1358.518z"/>
		</g>
		<g>
			<path style="fill:#FF8894;" d="M1171.895,623.271c-8.322,5.974-4.898,15.235-7.652,27.649
				c-4.039,18.212,4.339,25.937,12.515,23.169c8.177-2.768,8.767-14.507,16.337-19.43c0.024-0.016,0.047-0.031,0.07-0.046
				c0.023-0.016,0.046-0.032,0.069-0.049c7.371-5.217,18.498-1.43,24.09-8.006c5.592-6.576,1.507-17.214-16.909-20.187
				C1187.863,624.346,1180.521,617.744,1171.895,623.271z"/>
			<path style="fill:#FF8894;" d="M1147.182,630.869c9.06,3.263,14.699,10.643,12.596,16.484
				c-2.104,5.841-11.154,7.931-20.214,4.668c-9.06-3.263-14.699-10.643-12.596-16.484
				C1129.072,629.695,1138.122,627.606,1147.182,630.869z"/>
			<path style="fill:#FF8894;" d="M1188.083,603.111c-0.314,9.625,4.462,17.591,10.667,17.793
				c6.205,0.203,11.489-7.436,11.803-17.061c0.314-9.625-4.462-17.591-10.667-17.793
				C1193.681,585.847,1188.397,593.486,1188.083,603.111z"/>
			<path style="fill:#FF8894;" d="M1154.435,602.268c7.088,7.273,9.032,16.873,4.343,21.443c-4.689,4.569-14.235,2.377-21.323-4.896
				c-7.088-7.273-9.032-16.873-4.344-21.443C1137.8,592.803,1147.347,594.994,1154.435,602.268z"/>
			<path style="fill:#FF8894;" d="M1158.826,599.288c4.141,9.273,12.344,14.626,18.322,11.956c5.978-2.67,7.467-12.351,3.326-21.624
				c-4.141-9.273-12.344-14.626-18.322-11.956C1156.173,580.334,1154.684,590.015,1158.826,599.288z"/>
		</g>
		<g>
			<path style="fill:#FF8894;" d="M457.81,637.109c-10.214,0.794-12.087,10.489-20.877,19.676
				c-12.895,13.479-9.737,24.429-1.31,26.301c8.427,1.872,15.018-7.86,24.043-8.146c0.028-0.001,0.056-0.002,0.084-0.002
				c0.028-0.002,0.056-0.004,0.084-0.006c9.007-0.639,16.559,8.367,24.75,5.643c8.191-2.724,10.213-13.939-3.994-26.028
				C470.907,646.306,468.051,636.855,457.81,637.109z"/>
			<path style="fill:#FF8894;" d="M432.738,630.794c6.056,7.487,7.052,16.722,2.225,20.626c-4.827,3.904-13.649,0.999-19.705-6.488
				c-6.056-7.488-7.052-16.722-2.225-20.626C417.86,620.401,426.682,623.306,432.738,630.794z"/>
			<path style="fill:#FF8894;" d="M482.104,628.262c-5.258,8.068-5.304,17.355-0.103,20.746c5.201,3.389,13.68-0.402,18.938-8.47
				c5.258-8.068,5.304-17.355,0.103-20.745C495.841,616.402,487.362,620.194,482.104,628.262z"/>
			<path style="fill:#FF8894;" d="M453.768,610.096c2.29,9.894-1.024,19.112-7.402,20.588c-6.379,1.477-13.405-5.347-15.695-15.241
				c-2.291-9.894,1.024-19.112,7.401-20.588C444.45,593.379,451.478,600.203,453.768,610.096z"/>
			<path style="fill:#FF8894;" d="M459.067,609.824c-1.266,10.077,2.973,18.906,9.469,19.722
				c6.496,0.816,12.788-6.691,14.054-16.767c1.266-10.076-2.973-18.906-9.469-19.722
				C466.626,592.242,460.333,599.748,459.067,609.824z"/>
		</g>
		<g>
			<path style="fill:#FF8894;" d="M1342.623,1595.468c-7.482,6.998-2.892,15.74-4.021,28.405
				c-1.657,18.58,7.648,25.161,15.399,21.361c7.751-3.8,6.823-15.517,13.694-21.375c0.021-0.019,0.043-0.037,0.064-0.055
				c0.021-0.019,0.041-0.038,0.062-0.057c6.636-6.123,18.159-3.803,22.856-11.045c4.697-7.243-0.726-17.265-19.372-17.838
				C1358.595,1594.475,1350.463,1588.875,1342.623,1595.468z"/>
			<path style="fill:#FF8894;" d="M1319.096,1606.19c9.405,2.067,15.949,8.658,14.617,14.722
				c-1.333,6.063-10.037,9.302-19.443,7.235s-15.949-8.658-14.617-14.722C1300.985,1607.362,1309.69,1604.123,1319.096,1606.19z"/>
			<path style="fill:#FF8894;" d="M1356.075,1573.388c0.93,9.585,6.693,16.869,12.873,16.269c6.179-0.6,10.434-8.856,9.504-18.44
				c-0.93-9.585-6.693-16.869-12.873-16.269C1359.4,1555.547,1355.145,1563.804,1356.075,1573.388z"/>
			<path style="fill:#FF8894;" d="M1322.599,1576.892c7.967,6.299,11.133,15.567,7.073,20.703c-4.06,5.136-13.81,4.194-21.776-2.104
				c-7.967-6.298-11.134-15.567-7.073-20.703C1304.883,1569.652,1314.632,1570.594,1322.599,1576.892z"/>
			<path style="fill:#FF8894;" d="M1326.569,1573.371c5.303,8.661,14.128,12.912,19.711,9.493
				c5.584-3.418,5.811-13.211,0.509-21.873c-5.303-8.661-14.128-12.911-19.711-9.493
				C1321.493,1554.917,1321.266,1564.71,1326.569,1573.371z"/>
		</g>
		<g>
			<path style="fill:#FF8894;" d="M741.514,1585.389c-9.455-3.943-15.537,3.834-27.546,8.012
				c-17.619,6.128-19.792,17.315-13.142,22.819c6.65,5.504,16.95-0.16,25.115,3.695c0.025,0.012,0.051,0.024,0.076,0.036
				c0.026,0.011,0.052,0.022,0.078,0.033c8.31,3.532,10.932,14.99,19.466,16.294c8.533,1.305,15.44-7.76,8.296-24.992
				C748.986,1599.541,750.748,1589.825,741.514,1585.389z"/>
			<path style="fill:#FF8894;" d="M722.068,1568.349c1.982,9.424-1.336,18.099-7.411,19.377c-6.075,1.277-12.607-5.326-14.589-14.75
				c-1.982-9.424,1.336-18.099,7.411-19.377C713.554,1552.322,720.085,1558.926,722.068,1568.349z"/>
			<path style="fill:#FF8894;" d="M767.172,1588.574c-8.355,4.788-12.625,13.037-9.538,18.423
				c3.087,5.386,12.362,5.871,20.717,1.083c8.355-4.789,12.625-13.037,9.538-18.423
				C784.802,1584.27,775.527,1583.786,767.172,1588.574z"/>
			<path style="fill:#FF8894;" d="M750.216,1559.498c-2.466,9.852-9.614,16.549-15.965,14.959c-6.351-1.59-9.5-10.865-7.034-20.717
				c2.466-9.852,9.614-16.549,15.964-14.959C749.532,1540.372,752.681,1549.647,750.216,1559.498z"/>
			<path style="fill:#FF8894;" d="M755.057,1561.669c-5.716,8.395-5.962,18.187-0.55,21.871c5.411,3.684,14.432-0.134,20.147-8.529
				c5.715-8.394,5.962-18.187,0.55-21.871C769.793,1549.457,760.773,1553.275,755.057,1561.669z"/>
		</g>
		<g>
			<path style="fill:#FF8894;" d="M1682.517,802.96c-9.96-2.396-14.734,6.247-25.93,12.275c-16.425,8.843-16.798,20.232-9.36,24.613
				c7.438,4.381,16.71-2.844,25.384-0.331c0.026,0.008,0.053,0.016,0.081,0.023c0.027,0.007,0.054,0.013,0.081,0.02
				c8.765,2.171,13.17,13.069,21.802,13.004c8.632-0.064,14.016-10.108,4.232-25.991
				C1692.137,815.748,1692.336,805.877,1682.517,802.96z"/>
			<path style="fill:#FF8894;" d="M1660.616,789.216c3.45,8.991,1.549,18.082-4.247,20.306c-5.796,2.225-13.292-3.261-16.742-12.251
				c-3.45-8.99-1.549-18.082,4.247-20.307C1649.67,774.741,1657.166,780.226,1660.616,789.216z"/>
			<path style="fill:#FF8894;" d="M1708.355,802.039c-7.49,6.052-10.401,14.872-6.499,19.701c3.901,4.829,13.136,3.838,20.627-2.214
				c7.491-6.051,10.4-14.872,6.499-19.701C1725.081,794.996,1715.846,795.987,1708.355,802.039z"/>
			<path style="fill:#FF8894;" d="M1687.006,776.017c-0.875,10.118-6.87,17.864-13.393,17.3c-6.522-0.564-11.101-9.223-10.227-19.34
				c0.874-10.118,6.87-17.864,13.393-17.3C1683.301,757.241,1687.88,765.9,1687.006,776.017z"/>
			<path style="fill:#FF8894;" d="M1692.131,777.394c-4.313,9.194-3.005,18.902,2.922,21.682
				c5.927,2.781,14.229-2.418,18.542-11.612c4.313-9.194,3.005-18.902-2.923-21.682
				C1704.745,763.001,1696.444,768.2,1692.131,777.394z"/>
		</g>
		<g>
			<path style="fill:#FF8894;" d="M450.419,1609.463c-5.152,8.854,1.758,15.907,4.32,28.361
				c3.759,18.271,14.563,21.897,20.893,16.029c6.331-5.869,2.071-16.824,6.966-24.411c0.015-0.023,0.031-0.047,0.046-0.071
				c0.014-0.024,0.028-0.048,0.043-0.072c4.594-7.774,16.298-8.866,18.713-17.154c2.415-8.287-5.662-16.326-23.684-11.511
				C465.431,1603.916,456.031,1600.892,450.419,1609.463z"/>
			<path style="fill:#FF8894;" d="M430.971,1626.499c9.603-0.726,17.766,3.704,18.234,9.894c0.468,6.191-6.937,11.797-16.539,12.523
				c-9.603,0.726-17.766-3.704-18.234-9.894C413.964,1632.832,421.368,1627.225,430.971,1626.499z"/>
			<path style="fill:#FF8894;" d="M456.951,1584.446c3.648,8.912,11.263,14.23,17.008,11.878c5.746-2.352,7.445-11.483,3.797-20.396
				c-3.648-8.912-11.263-14.23-17.008-11.878C455.003,1566.402,453.303,1575.534,456.951,1584.446z"/>
			<path style="fill:#FF8894;" d="M425.898,1597.432c9.441,3.74,15.141,11.706,12.73,17.793c-2.411,6.087-12.02,7.989-21.462,4.249
				c-9.441-3.74-15.141-11.706-12.73-17.793C406.848,1595.595,416.457,1593.692,425.898,1597.432z"/>
			<path style="fill:#FF8894;" d="M428.687,1592.918c7.57,6.769,17.245,8.301,21.609,3.421c4.364-4.88,1.765-14.324-5.805-21.094
				c-7.57-6.769-17.245-8.301-21.609-3.421C418.518,1576.704,421.117,1586.148,428.687,1592.918z"/>
		</g>
		<g>
			<path style="fill:#FF8894;" d="M2271.519,606.227c-8.837,5.182-6.281,14.719-10.167,26.826
				c-5.7,17.762,1.93,26.227,10.327,24.224c8.397-2.003,10.066-13.638,18.057-17.843c0.025-0.013,0.05-0.026,0.075-0.039
				c0.024-0.014,0.049-0.028,0.073-0.042c7.82-4.515,18.551,0.281,24.726-5.751c6.174-6.033,3.086-17.002-14.977-21.659
				C2287.319,608.769,2280.616,601.518,2271.519,606.227z"/>
			<path style="fill:#FF8894;" d="M2246.21,611.515c8.721,4.084,13.656,11.952,11.023,17.575
				c-2.633,5.622-11.837,6.869-20.558,2.784c-8.721-4.084-13.656-11.952-11.023-17.574
				C2228.285,608.677,2237.489,607.431,2246.21,611.515z"/>
			<path style="fill:#FF8894;" d="M2289.496,587.644c-1.199,9.555,2.822,17.927,8.981,18.701c6.16,0.773,12.126-6.346,13.325-15.901
				c1.199-9.555-2.822-17.927-8.981-18.701C2296.661,570.971,2290.695,578.089,2289.496,587.644z"/>
			<path style="fill:#FF8894;" d="M2256.068,583.704c6.388,7.895,7.439,17.634,2.35,21.751c-5.09,4.118-14.394,1.055-20.782-6.84
				c-6.387-7.895-7.439-17.634-2.349-21.752C2240.376,572.747,2249.68,575.809,2256.068,583.704z"/>
			<path style="fill:#FF8894;" d="M2260.715,581.141c3.269,9.615,10.944,15.701,17.143,13.593c6.198-2.107,8.573-11.61,5.304-21.225
				c-3.269-9.615-10.944-15.701-17.143-13.594S2257.446,571.526,2260.715,581.141z"/>
		</g>
		<g>
			<path style="fill:#FF8894;" d="M2508.698,514.189c-10.241,0.29-12.59,9.88-21.822,18.623
				c-13.544,12.827-10.929,23.919-2.605,26.204c8.324,2.285,15.387-7.11,24.415-6.951c0.028,0.001,0.056,0.001,0.084,0.002
				c0.028-0.001,0.056-0.001,0.084-0.002c9.028-0.194,16.127,9.174,24.442,6.857c8.316-2.317,10.888-13.419-2.705-26.194
				C2521.325,524.021,2518.939,514.44,2508.698,514.189z"/>
			<path style="fill:#FF8894;" d="M2483.967,506.645c5.679,7.777,6.219,17.049,1.206,20.711c-5.014,3.661-13.682,0.325-19.361-7.452
				c-5.68-7.777-6.219-17.049-1.206-20.71C2469.619,495.533,2478.287,498.868,2483.967,506.645z"/>
			<path style="fill:#FF8894;" d="M2533.398,506.55c-5.65,7.798-6.154,17.073-1.126,20.715c5.028,3.642,13.683,0.273,19.332-7.527
				c5.65-7.798,6.154-17.073,1.126-20.715C2547.703,495.382,2539.048,498.752,2533.398,506.55z"/>
			<path style="fill:#FF8894;" d="M2505.992,487.01c1.8,9.995-1.965,19.037-8.408,20.198c-6.443,1.16-13.125-6.002-14.925-15.997
				c-1.8-9.995,1.965-19.038,8.408-20.198C2497.51,469.854,2504.192,477.015,2505.992,487.01z"/>
			<path style="fill:#FF8894;" d="M2511.298,487c-1.761,10.002,2.038,19.03,8.486,20.166c6.448,1.135,13.102-6.052,14.864-16.054
				c1.761-10.001-2.038-19.03-8.486-20.165C2519.714,469.811,2513.06,476.998,2511.298,487z"/>
		</g>
		<g>
			<path style="fill:#FF8894;" d="M1306.896,108.007c-9.983,2.3-10.398,12.165-17.729,22.554
				c-10.754,15.242-6.007,25.602,2.604,26.204c8.611,0.602,13.686-10,22.57-11.621c0.027-0.005,0.055-0.01,0.082-0.015
				c0.027-0.007,0.055-0.013,0.082-0.019c8.813-1.968,17.617,5.82,25.314,1.911c7.696-3.909,8.033-15.299-7.809-25.148
				C1321.211,115.16,1316.986,106.237,1306.896,108.007z"/>
			<path style="fill:#FF8894;" d="M1281.164,105.478c7.099,6.507,9.453,15.492,5.259,20.068c-4.195,4.576-13.35,3.012-20.449-3.495
				c-7.099-6.507-9.453-15.491-5.259-20.068C1264.91,97.407,1274.065,98.972,1281.164,105.478z"/>
			<path style="fill:#FF8894;" d="M1329.61,95.656c-4.004,8.758-2.673,17.95,2.973,20.531c5.646,2.581,13.469-2.427,17.473-11.184
				c4.004-8.758,2.673-17.95-2.973-20.531C1341.437,81.89,1333.614,86.897,1329.61,95.656z"/>
			<path style="fill:#FF8894;" d="M1298.893,81.892c3.732,9.445,1.821,19.052-4.268,21.458c-6.089,2.406-14.051-3.3-17.782-12.746
				c-3.732-9.445-1.821-19.052,4.268-21.458C1287.2,66.741,1295.161,72.447,1298.893,81.892z"/>
			<path style="fill:#FF8894;" d="M1304.094,80.838c0.242,10.152,5.744,18.256,12.289,18.101
				c6.545-0.156,11.655-8.513,11.413-18.665c-0.242-10.152-5.744-18.256-12.289-18.1
				C1308.962,62.328,1303.852,70.685,1304.094,80.838z"/>
		</g>
		<g>
			<path style="fill:#FF8894;" d="M2310.734,307.642c-8.715,5.384-5.94,14.86-9.545,27.054
				c-5.289,17.889,2.534,26.175,10.883,23.979c8.348-2.196,9.749-13.866,17.64-18.254c0.025-0.014,0.049-0.027,0.074-0.041
				c0.023-0.015,0.048-0.03,0.072-0.044c7.714-4.694,18.553-0.147,24.586-6.321c6.033-6.173,2.693-17.069-15.473-21.307
				C2326.589,309.819,2319.721,302.725,2310.734,307.642z"/>
			<path style="fill:#FF8894;" d="M2285.554,313.513c8.813,3.882,13.928,11.634,11.426,17.315
				c-2.502,5.681-11.675,7.141-20.488,3.259c-8.813-3.882-13.929-11.634-11.426-17.316
				C2267.568,311.09,2276.742,309.631,2285.554,313.513z"/>
			<path style="fill:#FF8894;" d="M2328.277,288.649c-0.979,9.58,3.235,17.858,9.411,18.488s11.976-6.624,12.954-16.204
				c0.979-9.58-3.235-17.857-9.411-18.488C2335.056,271.815,2329.256,279.069,2328.277,288.649z"/>
			<path style="fill:#FF8894;" d="M2294.768,285.482c6.568,7.746,7.844,17.458,2.851,21.691c-4.994,4.235-14.366,1.387-20.934-6.358
				c-6.568-7.746-7.844-17.458-2.851-21.691C2278.827,274.889,2288.2,277.736,2294.768,285.482z"/>
			<path style="fill:#FF8894;" d="M2299.354,282.813c3.49,9.537,11.303,15.444,17.452,13.194c6.148-2.25,8.303-11.806,4.812-21.342
				c-3.49-9.537-11.303-15.444-17.451-13.194C2298.018,263.72,2295.863,273.276,2299.354,282.813z"/>
		</g>
		<g>
			<path style="fill:#FF8894;" d="M1410.098,1106.595c-6.375,8.019-0.553,15.994,0.187,28.687
				c1.086,18.623,11.255,23.768,18.365,18.873c7.11-4.895,4.474-16.35,10.411-23.152c0.018-0.021,0.037-0.042,0.055-0.063
				c0.017-0.022,0.035-0.044,0.053-0.066c5.667-7.03,17.405-6.425,20.989-14.278c3.584-7.853-3.25-16.972-21.778-14.804
				C1425.752,1103.27,1416.887,1098.923,1410.098,1106.595z"/>
			<path style="fill:#FF8894;" d="M1388.397,1120.651c9.607,0.665,17.047,6.226,16.618,12.419
				c-0.429,6.193-8.565,10.674-18.172,10.009c-9.607-0.666-17.047-6.226-16.618-12.419
				C1370.655,1124.467,1378.79,1119.985,1388.397,1120.651z"/>
			<path style="fill:#FF8894;" d="M1420.167,1082.781c2.326,9.345,9.095,15.705,15.119,14.206c6.024-1.499,9.023-10.29,6.697-19.635
				c-2.326-9.345-9.095-15.704-15.119-14.205S1417.841,1073.436,1420.167,1082.781z"/>
			<path style="fill:#FF8894;" d="M1387.567,1091.156c8.804,5.062,13.296,13.766,10.033,19.442
				c-3.263,5.676-13.046,6.173-21.85,1.112c-8.804-5.062-13.296-13.767-10.033-19.442
				C1368.98,1086.592,1378.762,1086.094,1387.567,1091.156z"/>
			<path style="fill:#FF8894;" d="M1390.977,1087.091c6.515,7.79,15.868,10.7,20.89,6.5c5.022-4.2,3.811-13.92-2.704-21.71
				c-6.516-7.79-15.868-10.7-20.89-6.499C1383.251,1069.581,1384.462,1079.301,1390.977,1087.091z"/>
		</g>
		<g>
			<path style="fill:#FF8894;" d="M902.798,1325.731c-5.278,8.78,1.532,15.93,3.916,28.419c3.498,18.323,14.25,22.102,20.663,16.324
				c6.413-5.778,2.309-16.792,7.312-24.309c0.016-0.023,0.031-0.047,0.047-0.07c0.014-0.023,0.029-0.048,0.044-0.072
				c4.704-7.708,16.421-8.634,18.954-16.886c2.533-8.253-5.429-16.405-23.518-11.846
				C917.887,1320.398,908.532,1317.241,902.798,1325.731z"/>
			<path style="fill:#FF8894;" d="M883.11,1342.49c9.612-0.589,17.712,3.956,18.092,10.152c0.38,6.196-7.104,11.697-16.716,12.287
				c-9.612,0.589-17.711-3.956-18.091-10.153C866.014,1348.58,873.498,1343.078,883.11,1342.49z"/>
			<path style="fill:#FF8894;" d="M909.685,1300.809c3.521,8.963,11.06,14.389,16.838,12.119c5.778-2.27,7.608-11.376,4.087-20.339
				c-3.521-8.963-11.06-14.389-16.838-12.119C907.994,1282.741,906.164,1291.847,909.685,1300.809z"/>
			<path style="fill:#FF8894;" d="M878.451,1313.353c9.388,3.874,14.973,11.921,12.476,17.972
				c-2.497,6.052-12.132,7.818-21.52,3.943c-9.387-3.874-14.973-11.92-12.476-17.972
				C859.429,1311.245,869.063,1309.479,878.451,1313.353z"/>
			<path style="fill:#FF8894;" d="M881.303,1308.879c7.473,6.876,17.125,8.545,21.558,3.728c4.433-4.817,1.969-14.298-5.505-21.174
				c-7.473-6.876-17.125-8.545-21.558-3.728C871.366,1292.522,873.831,1302.002,881.303,1308.879z"/>
		</g>
		<g>
			<path style="fill:#FF8894;" d="M599.448,912.595c-7.878,6.549-3.806,15.544-5.672,28.122
				c-2.738,18.452,6.167,25.564,14.126,22.223c7.96-3.341,7.716-15.092,14.917-20.54c0.023-0.017,0.045-0.034,0.067-0.051
				c0.022-0.018,0.043-0.035,0.065-0.053c6.982-5.725,18.35-2.738,23.461-9.694c5.112-6.956,0.283-17.278-18.298-18.937
				C615.452,912.535,607.66,906.469,599.448,912.595z"/>
			<path style="fill:#FF8894;" d="M575.336,921.926c9.268,2.612,15.417,9.574,13.733,15.549c-1.685,5.975-10.563,8.701-19.832,6.089
				c-9.269-2.613-15.417-9.574-13.733-15.549C557.188,922.039,566.067,919.313,575.336,921.926z"/>
			<path style="fill:#FF8894;" d="M614.166,891.337c0.369,9.623,5.698,17.23,11.901,16.992c6.203-0.238,10.933-8.232,10.564-17.854
				c-0.37-9.623-5.698-17.23-11.902-16.992C618.526,873.72,613.796,881.714,614.166,891.337z"/>
			<path style="fill:#FF8894;" d="M580.542,892.882c7.586,6.753,10.207,16.19,5.854,21.081c-4.353,4.891-14.031,3.381-21.617-3.372
				c-7.586-6.752-10.206-16.19-5.853-21.081C563.278,884.62,572.956,886.13,580.542,892.882z"/>
			<path style="fill:#FF8894;" d="M584.71,889.598c4.788,8.956,13.351,13.714,19.124,10.627c5.773-3.087,6.572-12.85,1.784-21.805
				c-4.788-8.956-13.351-13.714-19.124-10.627C580.721,870.88,579.922,880.643,584.71,889.598z"/>
		</g>
		<g>
			<path style="fill:#FF8894;" d="M810.244,598.729c-9.589,3.604-8.693,13.437-14.58,24.707
				c-8.637,16.534-2.558,26.173,6.057,25.627c8.615-0.546,12.239-11.727,20.828-14.513c0.026-0.008,0.053-0.017,0.08-0.026
				c0.026-0.01,0.052-0.019,0.079-0.029c8.474-3.12,18.233,3.432,25.343-1.464c7.11-4.896,5.932-16.23-11.076-23.89
				C825.382,603.92,820.01,595.635,810.244,598.729z"/>
			<path style="fill:#FF8894;" d="M784.404,599.637c7.899,5.507,11.425,14.1,7.875,19.193c-3.551,5.093-12.833,4.757-20.732-0.751
				c-7.899-5.507-11.425-14.1-7.874-19.193C767.223,593.793,776.505,594.129,784.404,599.637z"/>
			<path style="fill:#FF8894;" d="M831.119,583.473c-2.807,9.212-0.268,18.146,5.671,19.955c5.938,1.81,13.028-4.191,15.834-13.404
				c2.807-9.212,0.268-18.146-5.671-19.955C841.014,568.26,833.925,574.261,831.119,583.473z"/>
			<path style="fill:#FF8894;" d="M798.847,573.906c4.952,8.867,4.332,18.642-1.383,21.835c-5.716,3.192-14.363-1.407-19.315-10.274
				c-4.952-8.867-4.333-18.642,1.383-21.834C785.247,560.44,793.895,565.04,798.847,573.906z"/>
			<path style="fill:#FF8894;" d="M803.862,572.171c1.586,10.031,8.115,17.333,14.582,16.31c6.466-1.023,10.422-9.983,8.835-20.014
				c-1.586-10.031-8.115-17.333-14.582-16.31C806.231,553.18,802.275,562.14,803.862,572.171z"/>
		</g>
		<g>
			<path style="fill:#FF8894;" d="M1793.322,1472.035c-8.199,6.142-4.588,15.332-7.089,27.798
				c-3.669,18.29,4.864,25.844,12.983,22.91c8.119-2.933,8.471-14.682,15.939-19.758c0.023-0.016,0.046-0.031,0.069-0.047
				c0.023-0.017,0.045-0.033,0.068-0.05c7.263-5.365,18.465-1.805,23.922-8.493c5.458-6.688,1.157-17.242-17.315-19.839
				C1809.307,1472.785,1801.833,1466.333,1793.322,1472.035z"/>
			<path style="fill:#FF8894;" d="M1768.767,1480.132c9.125,3.078,14.913,10.342,12.928,16.225
				c-1.985,5.882-10.99,8.155-20.115,5.077c-9.125-3.079-14.913-10.343-12.928-16.225
				C1750.637,1479.327,1759.642,1477.054,1768.767,1480.132z"/>
			<path style="fill:#FF8894;" d="M1809.096,1451.549c-0.118,9.629,4.818,17.497,11.026,17.573
				c6.208,0.076,11.336-7.668,11.454-17.297c0.118-9.629-4.818-17.497-11.026-17.573
				C1814.343,1434.176,1809.215,1441.92,1809.096,1451.549z"/>
			<path style="fill:#FF8894;" d="M1775.438,1451.389c7.234,7.128,9.374,16.687,4.779,21.35c-4.595,4.664-14.185,2.666-21.418-4.462
				c-7.234-7.127-9.374-16.686-4.778-21.35C1758.614,1442.264,1768.204,1444.262,1775.438,1451.389z"/>
			<path style="fill:#FF8894;" d="M1779.767,1448.321c4.329,9.187,12.639,14.372,18.561,11.581c5.923-2.791,7.214-12.5,2.886-21.687
				c-4.329-9.187-12.639-14.372-18.561-11.581C1776.73,1429.425,1775.439,1439.135,1779.767,1448.321z"/>
		</g>
		<g>
			<path style="fill:#FF8894;" d="M2155.722,1191.706c-8.786,5.267-6.139,14.779-9.907,26.923
				c-5.529,17.816,2.183,26.206,10.56,24.123c8.378-2.084,9.935-13.734,17.885-18.016c0.025-0.013,0.05-0.026,0.075-0.04
				c0.024-0.014,0.048-0.029,0.072-0.043c7.776-4.59,18.553,0.103,24.668-5.989c6.116-6.092,2.923-17.031-15.185-21.513
				C2171.546,1194.094,2164.774,1186.91,2155.722,1191.706z"/>
			<path style="fill:#FF8894;" d="M2130.465,1197.237c8.76,4,13.771,11.82,11.193,17.467c-2.579,5.647-11.77,6.983-20.53,2.983
				c-8.76-3.999-13.771-11.82-11.192-17.467C2112.514,1194.573,2121.706,1193.238,2130.465,1197.237z"/>
			<path style="fill:#FF8894;" d="M2173.519,1172.95c-1.107,9.566,2.994,17.899,9.162,18.613
				c6.167,0.714,12.064-6.462,13.171-16.028c1.107-9.566-2.995-17.9-9.162-18.614
				C2180.523,1156.208,2174.626,1163.384,2173.519,1172.95z"/>
			<path style="fill:#FF8894;" d="M2140.055,1169.333c6.463,7.833,7.609,17.561,2.559,21.728c-5.05,4.167-14.383,1.194-20.846-6.639
				c-6.463-7.833-7.609-17.562-2.559-21.728C2124.258,1158.527,2133.591,1161.499,2140.055,1169.333z"/>
			<path style="fill:#FF8894;" d="M2144.677,1166.725c3.361,9.583,11.095,15.595,17.273,13.428
				c6.178-2.167,8.46-11.693,5.099-21.275s-11.095-15.595-17.273-13.428C2143.597,1147.617,2141.314,1157.142,2144.677,1166.725z"/>
		</g>
		<g>
			<path style="fill:#FF8894;" d="M124.244,1614.323c-8.21-6.127-16.004-0.064-28.669,1.063
				c-18.581,1.654-23.413,11.974-18.303,18.932c5.11,6.958,16.478,3.973,23.458,9.701c0.022,0.018,0.043,0.036,0.065,0.053
				c0.022,0.017,0.045,0.034,0.067,0.051c7.2,5.449,6.953,17.201,14.912,20.544c7.958,3.343,16.865-3.767,14.132-22.22
				C128.045,1629.869,132.119,1620.875,124.244,1614.323z"/>
			<path style="fill:#FF8894;" d="M109.532,1593.062c-0.372,9.623-5.703,17.229-11.907,16.989
				c-6.203-0.24-10.931-8.235-10.558-17.858c0.372-9.623,5.703-17.229,11.907-16.989S109.905,1583.439,109.532,1593.062z"/>
			<path style="fill:#FF8894;" d="M148.354,1623.661c-9.27,2.61-15.42,9.57-13.737,15.546c1.682,5.975,10.561,8.704,19.83,6.095
				c9.27-2.61,15.42-9.57,13.737-15.545C166.502,1623.78,157.623,1621.052,148.354,1623.661z"/>
			<path style="fill:#FF8894;" d="M138.988,1591.331c-4.791,8.954-13.354,13.71-19.127,10.621
				c-5.772-3.088-6.568-12.851-1.777-21.805c4.791-8.955,13.354-13.71,19.127-10.621
				C142.983,1572.614,143.779,1582.377,138.988,1591.331z"/>
			<path style="fill:#FF8894;" d="M143.156,1594.616c-7.588,6.75-10.211,16.187-5.859,21.079c4.351,4.892,14.03,3.385,21.618-3.365
				c7.588-6.75,10.211-16.187,5.859-21.079C160.422,1586.359,150.743,1587.866,143.156,1594.616z"/>
		</g>
		<g>
			<path style="fill:#FF8894;" d="M1886.154,595.766c-9.706,3.277-9.142,13.135-15.407,24.199
				c-9.192,16.232-3.442,26.071,5.187,25.817c8.629-0.254,12.629-11.307,21.308-13.799c0.027-0.008,0.054-0.016,0.081-0.023
				c0.026-0.009,0.053-0.018,0.08-0.026c8.574-2.831,18.107,4.046,25.378-0.606c7.272-4.652,6.478-16.02-10.261-24.251
				C1901.108,601.467,1896.02,593.005,1886.154,595.766z"/>
			<path style="fill:#FF8894;" d="M1860.299,595.799c7.709,5.772,10.941,14.479,7.22,19.449c-3.72,4.969-12.985,4.319-20.694-1.452
				c-7.709-5.772-10.941-14.479-7.22-19.448C1843.325,589.377,1852.59,590.028,1860.299,595.799z"/>
			<path style="fill:#FF8894;" d="M1907.533,581.226c-3.117,9.111-0.882,18.126,4.992,20.136c5.874,2.009,13.162-3.748,16.279-12.86
				c3.117-9.111,0.882-18.126-4.992-20.136S1910.65,572.114,1907.533,581.226z"/>
			<path style="fill:#FF8894;" d="M1875.605,570.572c4.649,9.029,3.699,18.778-2.122,21.775c-5.82,2.997-14.308-1.893-18.957-10.921
				c-4.649-9.029-3.699-18.778,2.121-21.775C1862.468,556.654,1870.955,561.544,1875.605,570.572z"/>
			<path style="fill:#FF8894;" d="M1880.675,569.008c1.246,10.079,7.524,17.598,14.021,16.794
				c6.498-0.803,10.754-9.626,9.508-19.704c-1.247-10.079-7.524-17.598-14.022-16.794
				C1883.686,550.108,1879.428,558.929,1880.675,569.008z"/>
		</g>
		<g>
			<path style="fill:#FF8894;" d="M767.359,182.586c-5.823,8.429,0.521,15.994,2.112,28.61
				c2.333,18.508,12.823,22.959,19.589,17.598c6.766-5.361,3.367-16.613,8.835-23.799c0.017-0.022,0.034-0.044,0.051-0.067
				c0.016-0.023,0.032-0.046,0.048-0.069c5.182-7.395,16.935-7.578,19.984-15.654c3.05-8.076-4.381-16.716-22.722-13.31
				C782.754,178.218,773.617,174.475,767.359,182.586z"/>
			<path style="fill:#FF8894;" d="M746.649,198.066c9.63,0.019,17.426,5.068,17.414,11.276c-0.013,6.208-7.83,11.225-17.459,11.205
				c-9.63-0.02-17.426-5.068-17.413-11.276C729.203,203.063,737.019,198.046,746.649,198.066z"/>
			<path style="fill:#FF8894;" d="M775.807,158.15c2.948,9.168,10.128,15.059,16.038,13.159c5.911-1.9,8.312-10.872,5.365-20.04
				c-2.947-9.168-10.128-15.059-16.038-13.159C775.262,140.01,772.86,148.982,775.807,158.15z"/>
			<path style="fill:#FF8894;" d="M743.842,168.693c9.124,4.46,14.19,12.843,11.314,18.725c-2.875,5.882-12.602,7.035-21.726,2.575
				c-9.124-4.46-14.19-12.844-11.314-18.725C724.991,165.386,734.718,164.233,743.842,168.693z"/>
			<path style="fill:#FF8894;" d="M746.972,164.408c7.023,7.335,16.55,9.611,21.279,5.083c4.729-4.527,2.869-14.145-4.155-21.48
				c-7.023-7.335-16.55-9.611-21.279-5.084C738.089,147.456,739.948,157.073,746.972,164.408z"/>
		</g>
		<g>
			<path style="fill:#FF8894;" d="M1540.193,1348.057c-7.122-7.364-15.786-2.629-28.468-3.546
				c-18.606-1.345-25.029,8.068-21.101,15.754c3.929,7.687,15.629,6.562,21.601,13.334c0.019,0.021,0.037,0.042,0.055,0.063
				c0.02,0.021,0.039,0.04,0.058,0.061c6.234,6.533,4.106,18.093,11.427,22.668c7.32,4.576,17.251-1.015,17.51-19.667
				C1541.454,1364.01,1546.917,1355.786,1540.193,1348.057z"/>
			<path style="fill:#FF8894;" d="M1529.079,1324.712c-1.91,9.438-8.39,16.092-14.475,14.861c-6.084-1.231-9.469-9.88-7.56-19.32
				c1.909-9.438,8.39-16.092,14.475-14.861C1527.604,1306.624,1530.989,1315.274,1529.079,1324.712z"/>
			<path style="fill:#FF8894;" d="M1562.495,1361.137c-9.568,1.091-16.755,6.975-16.052,13.143
				c0.703,6.168,9.03,10.285,18.597,9.194c9.568-1.09,16.755-6.974,16.052-13.143
				C1580.389,1364.163,1572.063,1360.047,1562.495,1361.137z"/>
			<path style="fill:#FF8894;" d="M1558.431,1327.725c-6.164,8.071-15.379,11.392-20.582,7.419
				c-5.203-3.974-4.424-13.738,1.74-21.809c6.164-8.071,15.379-11.392,20.582-7.419
				C1565.374,1309.89,1564.595,1319.654,1558.431,1327.725z"/>
			<path style="fill:#FF8894;" d="M1562.019,1331.635c-8.571,5.447-12.673,14.342-9.162,19.868
				c3.512,5.526,13.306,5.589,21.877,0.142c8.571-5.447,12.673-14.342,9.162-19.867
				C1580.385,1326.252,1570.59,1326.188,1562.019,1331.635z"/>
		</g>
		<g>
			<path style="fill:#FF8894;" d="M2448.433,1176.867c-6.278,8.096-0.36,15.999,0.533,28.683c1.311,18.609,11.54,23.63,18.591,18.65
				c7.05-4.98,4.276-16.402,10.131-23.276c0.018-0.021,0.036-0.043,0.055-0.064c0.017-0.022,0.034-0.044,0.052-0.066
				c5.581-7.098,17.327-6.635,20.815-14.53c3.489-7.896-3.455-16.932-21.954-14.54
				C2464.046,1173.353,2455.129,1169.114,2448.433,1176.867z"/>
			<path style="fill:#FF8894;" d="M2426.903,1191.184c9.614,0.55,17.121,6.019,16.767,12.218
				c-0.354,6.198-8.435,10.777-18.049,10.227c-9.614-0.55-17.121-6.02-16.767-12.218
				C2409.208,1195.213,2417.289,1190.635,2426.903,1191.184z"/>
			<path style="fill:#FF8894;" d="M2458.214,1152.934c2.438,9.316,9.283,15.594,15.289,14.022c6.006-1.572,8.898-10.398,6.46-19.714
				c-2.439-9.316-9.284-15.594-15.29-14.022C2458.668,1134.791,2455.776,1143.617,2458.214,1152.934z"/>
			<path style="fill:#FF8894;" d="M2425.717,1161.702c8.865,4.955,13.461,13.605,10.267,19.32c-3.195,5.715-12.97,6.33-21.835,1.375
				c-8.865-4.955-13.461-13.604-10.267-19.32C2407.077,1157.362,2416.853,1156.746,2425.717,1161.702z"/>
			<path style="fill:#FF8894;" d="M2429.078,1157.595c6.609,7.711,15.996,10.508,20.968,6.247
				c4.971-4.261,3.643-13.965-2.966-21.677c-6.609-7.711-15.996-10.508-20.967-6.247
				C2421.141,1140.18,2422.469,1149.885,2429.078,1157.595z"/>
		</g>
		<g>
			<path style="fill:#FF8894;" d="M1873.281,239.667c-8.7-5.408-15.951,1.294-28.475,3.492
				c-18.373,3.225-22.312,13.918-16.63,20.417s16.756,2.56,24.198,7.674c0.024,0.016,0.046,0.032,0.069,0.047
				c0.024,0.015,0.047,0.03,0.072,0.045c7.636,4.819,8.388,16.549,16.602,19.204c8.213,2.655,16.484-5.184,12.195-23.339
				C1878.389,254.834,1881.685,245.527,1873.281,239.667z"/>
			<path style="fill:#FF8894;" d="M1856.819,219.731c0.446,9.62-4.22,17.651-10.421,17.938c-6.202,0.287-11.59-7.278-12.037-16.897
				c-0.446-9.619,4.22-17.651,10.422-17.938C1850.984,202.546,1856.372,210.112,1856.819,219.731z"/>
			<path style="fill:#FF8894;" d="M1898.097,246.925c-9.014,3.387-14.552,10.844-12.369,16.655
				c2.184,5.811,11.261,7.777,20.276,4.39c9.014-3.387,14.552-10.844,12.369-16.655
				C1916.189,245.503,1907.112,243.538,1898.097,246.925z"/>
			<path style="fill:#FF8894;" d="M1886.021,215.507c-4.014,9.328-12.142,14.793-18.156,12.206
				c-6.014-2.587-7.635-12.247-3.622-21.576c4.014-9.329,12.142-14.794,18.156-12.206
				C1888.413,196.518,1890.034,206.178,1886.021,215.507z"/>
			<path style="fill:#FF8894;" d="M1890.452,218.426c-6.987,7.37-8.8,16.996-4.049,21.5c4.751,4.504,14.267,2.181,21.254-5.188
				c6.987-7.37,8.8-16.996,4.049-21.5S1897.439,211.056,1890.452,218.426z"/>
		</g>
		<g>
			<path style="fill:#FF8894;" d="M1642.81,104.008c-10.137,1.481-11.352,11.28-19.502,21.039
				c-11.957,14.318-8.067,25.03,0.467,26.329c8.534,1.3,14.454-8.855,23.439-9.749c0.028-0.003,0.056-0.005,0.084-0.008
				c0.028-0.004,0.056-0.008,0.084-0.012c8.943-1.245,17.085,7.232,25.074,3.961c7.989-3.271,9.25-14.597-5.74-25.7
				C1656.497,112.301,1653.011,103.063,1642.81,104.008z"/>
			<path style="fill:#FF8894;" d="M1617.369,99.397c6.547,7.062,8.164,16.209,3.611,20.429c-4.553,4.221-13.551,1.917-20.098-5.144
				c-6.547-7.062-8.164-16.208-3.611-20.429C1601.824,90.032,1610.822,92.336,1617.369,99.397z"/>
			<path style="fill:#FF8894;" d="M1666.452,93.542c-4.702,8.404-4.121,17.674,1.296,20.705c5.418,3.031,13.621-1.324,18.324-9.728
				c4.702-8.404,4.121-17.674-1.296-20.705C1679.358,80.783,1671.155,85.138,1666.452,93.542z"/>
			<path style="fill:#FF8894;" d="M1636.955,77.329c2.952,9.717,0.268,19.137-5.997,21.04c-6.264,1.903-13.735-4.431-16.688-14.147
				c-2.952-9.717-0.268-19.137,5.997-21.04C1626.532,61.278,1634.003,67.612,1636.955,77.329z"/>
			<path style="fill:#FF8894;" d="M1642.225,76.7c-0.584,10.138,4.242,18.663,10.778,19.039c6.536,0.377,12.308-7.537,12.891-17.676
				c0.584-10.138-4.242-18.663-10.778-19.039C1648.58,58.647,1642.808,66.562,1642.225,76.7z"/>
		</g>
		<g>
			<path style="fill:#FF8894;" d="M1130.943,1060.523c-10.195-1.004-13.736,8.212-23.997,15.721
				c-15.055,11.015-13.859,22.348-5.89,25.666s16.161-5.112,25.097-3.814c0.028,0.004,0.055,0.008,0.083,0.012
				c0.028,0.003,0.056,0.006,0.084,0.008c8.98,0.947,14.84,11.136,23.381,9.887c8.541-1.25,12.494-11.938,0.621-26.326
				C1142.229,1071.869,1141.071,1062.064,1130.943,1060.523z"/>
			<path style="fill:#FF8894;" d="M1107.363,1049.919c4.653,8.431,4.018,17.698-1.417,20.697c-5.435,3-13.613-1.404-18.266-9.835
				c-4.652-8.432-4.018-17.698,1.417-20.698C1094.532,1037.085,1102.709,1041.488,1107.363,1049.919z"/>
			<path style="fill:#FF8894;" d="M1156.411,1056.062c-6.588,7.024-8.259,16.16-3.731,20.408c4.528,4.247,13.539,1.997,20.127-5.027
				s8.259-16.16,3.731-20.407C1172.01,1046.788,1162.999,1049.039,1156.411,1056.062z"/>
			<path style="fill:#FF8894;" d="M1131.689,1033.22c0.524,10.142-4.351,18.638-10.89,18.976
				c-6.538,0.338-12.263-7.61-12.787-17.752c-0.524-10.142,4.351-18.638,10.889-18.976
				C1125.44,1015.13,1131.165,1023.078,1131.689,1033.22z"/>
			<path style="fill:#FF8894;" d="M1136.954,1033.879c-3.009,9.699-0.38,19.135,5.873,21.075c6.253,1.94,13.761-4.35,16.77-14.05
				c3.009-9.699,0.38-19.135-5.873-21.075C1147.472,1017.89,1139.964,1024.18,1136.954,1033.879z"/>
		</g>
		<g>
			<path style="fill:#FF8894;" d="M454.109,108.52c-9.522,3.779-8.445,13.594-14.125,24.97c-8.332,16.69-2.077,26.215,6.526,25.511
				c8.604-0.704,12.022-11.95,20.559-14.891c0.026-0.009,0.053-0.018,0.079-0.027c0.026-0.01,0.052-0.021,0.078-0.031
				c8.415-3.275,18.293,3.096,25.312-1.929c7.019-5.025,5.634-16.336-11.512-23.683C469.339,113.433,463.817,105.248,454.109,108.52
				z"/>
			<path style="fill:#FF8894;" d="M428.29,109.902c7.999,5.362,11.682,13.889,8.225,19.045c-3.456,5.157-12.743,4.991-20.743-0.37
				c-7.999-5.362-11.682-13.888-8.225-19.045C411.005,104.374,420.291,104.54,428.29,109.902z"/>
			<path style="fill:#FF8894;" d="M474.7,92.884c-2.637,9.262,0.065,18.148,6.036,19.848c5.971,1.7,12.949-4.43,15.586-13.692
				c2.637-9.262-0.066-18.148-6.036-19.848C484.315,77.492,477.337,83.623,474.7,92.884z"/>
			<path style="fill:#FF8894;" d="M442.259,83.911c5.114,8.774,4.674,18.56-0.982,21.856c-5.656,3.297-14.387-1.143-19.501-9.917
				c-5.114-8.775-4.673-18.559,0.983-21.856C428.414,70.697,437.145,75.137,442.259,83.911z"/>
			<path style="fill:#FF8894;" d="M447.241,82.084c1.77,10,8.432,17.182,14.878,16.04c6.447-1.141,10.238-10.173,8.467-20.173
				c-1.771-10-8.432-17.182-14.879-16.04C449.261,63.053,445.471,72.085,447.241,82.084z"/>
		</g>
		<g>
			<path style="fill:#FF8894;" d="M1941.636,989.473c-7.148,7.339-2.156,15.858-2.694,28.561
				c-0.789,18.638,8.811,24.777,16.377,20.621c7.566-4.156,6.092-15.818,12.684-21.99c0.021-0.019,0.041-0.039,0.061-0.057
				c0.019-0.02,0.039-0.04,0.059-0.06c6.344-6.425,17.962-4.645,22.317-12.099c4.355-7.453-1.529-17.212-20.181-16.916
				C1957.545,987.737,1949.161,982.522,1941.636,989.473z"/>
			<path style="fill:#FF8894;" d="M1918.634,1001.279c9.491,1.627,16.335,7.906,15.286,14.025c-1.049,6.119-9.594,9.76-19.085,8.133
				c-9.491-1.627-16.335-7.906-15.287-14.025C1900.597,1003.294,1909.142,999.653,1918.634,1001.279z"/>
			<path style="fill:#FF8894;" d="M1954.045,966.791c1.376,9.531,7.472,16.539,13.616,15.652c6.145-0.887,10.01-9.332,8.634-18.863
				c-1.375-9.531-7.472-16.539-13.616-15.652C1956.535,948.814,1952.67,957.259,1954.045,966.791z"/>
			<path style="fill:#FF8894;" d="M1920.769,971.85c8.251,5.92,11.847,15.032,8.029,20.351c-3.816,5.319-13.6,4.832-21.851-1.088
				c-8.251-5.92-11.847-15.032-8.029-20.351C1902.734,965.443,1912.517,965.93,1920.769,971.85z"/>
			<path style="fill:#FF8894;" d="M1924.57,968.148c5.7,8.405,14.713,12.239,20.132,8.564c5.418-3.675,5.19-13.467-0.511-21.872
				c-5.701-8.405-14.714-12.239-20.132-8.564C1918.641,949.951,1918.869,959.743,1924.57,968.148z"/>
		</g>
		<g>
			<path style="fill:#FF8894;" d="M2086.156,399.303c-7.876-6.551-15.978-0.908-28.685-0.449
				c-18.642,0.673-24.011,10.725-19.275,17.942c4.736,7.217,16.246,4.835,22.916,10.922c0.02,0.019,0.042,0.038,0.062,0.057
				c0.021,0.017,0.043,0.035,0.064,0.054c6.903,5.821,6.037,17.543,13.809,21.301c7.771,3.758,17.04-2.873,15.283-21.444
				C2089.133,415.027,2093.675,406.26,2086.156,399.303z"/>
			<path style="fill:#FF8894;" d="M2072.585,377.296c-0.879,9.589-6.602,16.904-12.785,16.338
				c-6.182-0.566-10.481-8.799-9.603-18.389c0.878-9.589,6.602-16.904,12.784-16.338
				C2069.164,359.473,2073.463,367.706,2072.585,377.296z"/>
			<path style="fill:#FF8894;" d="M2109.741,409.898c-9.394,2.118-15.902,8.744-14.537,14.801c1.365,6.056,10.088,9.248,19.482,7.13
				c9.394-2.117,15.902-8.744,14.537-14.8C2127.857,410.972,2119.135,407.78,2109.741,409.898z"/>
			<path style="fill:#FF8894;" d="M2102.091,377.119c-5.256,8.69-14.058,12.987-19.66,9.599c-5.602-3.388-5.882-13.179-0.627-21.869
				s14.058-12.987,19.66-9.599C2107.066,358.639,2107.346,368.43,2102.091,377.119z"/>
			<path style="fill:#FF8894;" d="M2106.079,380.619c-7.933,6.341-11.049,15.627-6.961,20.741
				c4.088,5.114,13.832,4.119,21.765-2.222c7.932-6.341,11.049-15.627,6.961-20.741
				C2123.757,373.283,2114.012,374.278,2106.079,380.619z"/>
		</g>
		<g>
			<path style="fill:#FF8894;" d="M1086.612,381.017c-9.15-4.607-15.771,2.718-28.048,6.029
				c-18.011,4.858-20.976,15.861-14.735,21.824c6.241,5.964,16.918,1.049,24.788,5.476c0.025,0.014,0.049,0.028,0.073,0.041
				c0.025,0.013,0.05,0.025,0.075,0.039c8.037,4.116,9.837,15.731,18.255,17.64c8.418,1.909,15.953-6.639,10.056-24.337
				C1093.056,395.665,1095.506,386.101,1086.612,381.017z"/>
			<path style="fill:#FF8894;" d="M1068.429,362.635c1.306,9.541-2.622,17.957-8.773,18.799
				c-6.151,0.841-12.195-6.211-13.501-15.751c-1.306-9.541,2.622-17.958,8.773-18.799
				C1061.078,346.042,1067.123,353.094,1068.429,362.635z"/>
			<path style="fill:#FF8894;" d="M1111.977,386.023c-8.675,4.181-13.522,12.104-10.826,17.696
				c2.695,5.592,11.913,6.736,20.587,2.555c8.675-4.18,13.522-12.103,10.827-17.696
				C1129.87,382.987,1120.652,381.842,1111.977,386.023z"/>
			<path style="fill:#FF8894;" d="M1097.136,355.813c-3.162,9.651-10.769,15.822-16.99,13.784
				c-6.222-2.039-8.702-11.514-5.54-21.165c3.162-9.651,10.768-15.822,16.99-13.784
				C1097.817,336.686,1100.298,346.162,1097.136,355.813z"/>
			<path style="fill:#FF8894;" d="M1101.81,358.323c-6.299,7.966-7.242,17.715-2.107,21.776c5.135,4.061,14.405,0.895,20.704-7.071
				c6.299-7.966,7.242-17.716,2.107-21.776C1117.379,347.191,1108.11,350.357,1101.81,358.323z"/>
		</g>
		<path style="fill:#FF8894;" d="M829.551,1046.079c3.75-29.323,33.837-25.443,26.185,9.835
			c-4.907,22.618-25.804,41.838-27.37,40.54c-5.002-4.146-9.042-6.602-18.707-23.604c-7.313-12.865-12.363-27.117-5.544-40.149
			c3.515-6.716,9.998-10.293,15.771-5.335C827.065,1033.532,828.14,1045.276,829.551,1046.079z"/>
		<path style="fill:#FF8894;" d="M2046.879,92.038c21.708-20.066,42.277,2.233,13.753,24.356
			c-18.289,14.185-46.65,15.494-47.017,13.493c-1.171-6.391-2.69-10.867,0.823-30.106c2.658-14.558,7.942-28.725,21.538-34.333
			c7.007-2.89,14.274-1.468,15.514,6.041C2053.033,80.825,2046.314,90.517,2046.879,92.038z"/>
		<path style="fill:#FF8894;" d="M1220.515,1334.83c27.914-9.731,37.869,18.925,2.885,27.822c-22.431,5.704-48.957-4.419-48.494-6.4
			c1.478-6.327,1.873-11.038,12.774-27.275c8.249-12.286,18.749-23.166,33.454-22.88c7.578,0.148,13.674,4.354,11.813,11.732
			C1230.633,1327.005,1220.604,1333.209,1220.515,1334.83z"/>
		<path style="fill:#FF8894;" d="M2419.949,1644.888c21.669-20.109,42.281,2.151,13.801,24.329
			c-18.261,14.22-46.621,15.584-46.991,13.584c-1.183-6.388-2.711-10.863,0.764-30.108c2.629-14.563,7.885-28.74,21.471-34.375
			c7.001-2.904,14.272-1.495,15.526,6.01C2426.081,1633.663,2419.382,1643.369,2419.949,1644.888z"/>
		<path style="fill:#FF8894;" d="M1974.12,1632.038c0.173-29.562,30.509-29.351,27.183,6.593
			c-2.133,23.046-20.55,44.654-22.262,43.555c-5.467-3.51-9.775-5.459-21.427-21.166c-8.816-11.886-15.554-25.422-10.362-39.182
			c2.676-7.092,8.679-11.428,15.009-7.205C1970.134,1619.884,1972.624,1631.411,1974.12,1632.038z"/>
		<path style="fill:#FF8894;" d="M598.719,384.737c-2.336-29.47,27.908-31.835,27.644,4.262
			c-0.169,23.144-16.685,46.237-18.485,45.287c-5.745-3.033-10.202-4.61-23.145-19.271c-9.794-11.094-17.656-24.009-13.651-38.161
			c2.064-7.293,7.678-12.123,14.344-8.453C593.716,372.965,597.175,384.239,598.719,384.737z"/>
		<path style="fill:#FF8894;" d="M1421.833,334.974c22.27-19.441,42.196,3.433,13.055,24.737
			c-18.684,13.659-47.071,14.163-47.381,12.151c-0.989-6.421-2.38-10.94,1.678-30.071c3.07-14.477,8.754-28.488,22.505-33.707
			c7.087-2.69,14.311-1.061,15.337,6.479C1428.303,323.94,1421.312,333.438,1421.833,334.974z"/>
		<path style="fill:#FF8894;" d="M588.479,1257.333c18.885-22.744,42.203-3.34,16.833,22.339
			c-16.268,16.464-44.211,21.486-44.837,19.551c-2-6.181-4.094-10.42-3.139-29.954c0.722-14.781,4.1-29.519,16.842-36.864
			c6.567-3.785,13.959-3.33,16.174,3.951C593.107,1245.408,587.719,1255.899,588.479,1257.333z"/>
		<path style="fill:#FF8894;" d="M2293.042,896.943c-0.345-29.56,29.989-29.881,27.294,6.115
			c-1.729,23.08-19.764,45.008-21.495,43.939c-5.528-3.414-9.868-5.287-21.794-20.787c-9.023-11.729-15.997-25.145-11.048-38.995
			c2.551-7.137,8.477-11.578,14.881-7.467C2288.844,884.861,2291.534,896.343,2293.042,896.943z"/>
		<path style="fill:#FF8894;" d="M288.738,361.537c16-24.857,41.491-8.411,19.407,20.143c-14.16,18.307-41.294,26.668-42.149,24.822
			c-2.732-5.895-5.322-9.85-6.732-29.356c-1.067-14.76,0.506-29.798,12.268-38.628c6.062-4.55,13.454-4.991,16.532,1.969
			C291.892,349.142,287.81,360.206,288.738,361.537z"/>
		<path style="fill:#FF8894;" d="M100.808,148.546c-6.452-28.849,23.16-35.438,27.969,0.337
			c3.083,22.938-10.027,48.122-11.941,47.434c-6.114-2.196-10.749-3.131-25.623-15.829c-11.255-9.609-20.853-21.292-18.875-35.866
			c1.019-7.511,5.899-13.081,13.014-10.383C94.202,137.593,99.21,148.27,100.808,148.546z"/>
		<path style="fill:#FF8894;" d="M69.438,950.592c17.199-24.044,41.854-6.368,18.396,21.07
			c-15.04,17.592-42.55,24.612-43.314,22.727c-2.44-6.021-4.834-10.099-5.286-29.651c-0.342-14.794,1.965-29.737,14.146-37.98
			c6.278-4.248,13.682-4.326,16.416,2.776C73.195,938.365,68.577,949.216,69.438,950.592z"/>
		<path style="fill:#FF8894;" d="M976.297,814.285c-4.312-29.246,25.705-33.638,27.868,2.394
			c1.387,23.103-13.54,47.254-15.399,46.427c-5.936-2.641-10.489-3.913-24.388-17.672c-10.517-10.411-19.23-22.769-16.185-37.158
			c1.57-7.415,6.846-12.611,13.743-9.397C970.514,802.877,974.722,813.893,976.297,814.285z"/>
		<path style="fill:#FF8894;" d="M1672.54,1061.074c14.591-25.71,40.958-10.709,20.498,19.031
			c-13.119,19.068-39.743,28.926-40.7,27.131c-3.056-5.733-5.863-9.538-8.358-28.935c-1.887-14.677-1.155-29.78,10.098-39.251
			c5.799-4.881,13.155-5.732,16.616,1.045C1674.998,1048.522,1671.54,1059.796,1672.54,1061.074z"/>
		<path style="fill:#FF8894;" d="M2064.799,773.157c-10.875-27.489,17.346-38.619,27.678-4.031
			c6.625,22.176-2.394,49.097-4.393,48.717c-6.382-1.216-11.105-1.416-27.779-11.637c-12.616-7.735-23.92-17.777-24.24-32.481
			c-0.165-7.578,3.785-13.841,11.235-12.287C2056.564,763.37,2063.177,773.135,2064.799,773.157z"/>
		<path style="fill:#FF8894;" d="M1880.25,1260.408c19.327-22.369,42.261-2.511,16.391,22.665
			c-16.587,16.142-44.624,20.616-45.212,18.668c-1.878-6.22-3.889-10.499-2.551-30.01c1.013-14.763,4.678-29.433,17.562-36.526
			c6.64-3.656,14.021-3.055,16.094,4.267C1885.111,1248.577,1879.519,1258.96,1880.25,1260.408z"/>
		<path style="fill:#FF8894;" d="M1486.444,590.103c-0.655-29.554,29.675-30.194,27.356,5.829
			c-1.487,23.097-19.291,45.212-21.034,44.161c-5.563-3.356-9.924-5.184-22.011-20.558c-9.146-11.634-16.26-24.976-11.455-38.877
			c2.476-7.164,8.355-11.667,14.802-7.622C1482.119,578.066,1484.931,589.519,1486.444,590.103z"/>
		<path style="fill:#FF8894;" d="M2528.353,157.595c-11.718-27.14,16.145-39.136,27.542-4.885
			c7.306,21.961-0.877,49.148-2.886,48.829c-6.416-1.018-11.144-1.072-28.125-10.773c-12.848-7.341-24.458-17.03-25.232-31.717
			c-0.399-7.569,3.356-13.952,10.85-12.628C2519.82,148.067,2526.731,157.623,2528.353,157.595z"/>
		<path style="fill:#FF8894;" d="M70.556,1311.989c12.634-26.726,40.046-13.731,21.859,17.45
			c-11.661,19.993-37.477,31.808-38.565,30.089c-3.474-5.49-6.557-9.075-10.49-28.233c-2.976-14.496-3.371-29.611,7.144-39.894
			c5.419-5.3,12.692-6.697,16.648-0.197C72.073,1299.288,69.464,1310.79,70.556,1311.989z"/>
		<path style="fill:#FF8894;" d="M2524.449,858.038c23.513-17.918,41.874,6.231,11.382,25.55
			c-19.551,12.386-47.909,11.001-48.084,8.974c-0.559-6.473-1.647-11.074,3.673-29.893c4.027-14.24,10.629-27.842,24.697-32.136
			c7.25-2.213,14.35-0.108,14.872,7.484C2531.638,847.459,2524.031,856.47,2524.449,858.038z"/>
		<path style="fill:#FF8894;" d="M2169.687,1480.759c16.898-24.257,41.771-6.889,18.658,20.839
			c-14.819,17.778-42.24,25.141-43.027,23.266c-2.514-5.991-4.959-10.037-5.656-29.583c-0.528-14.789,1.594-29.759,13.67-38.154
			c6.224-4.326,13.627-4.495,16.45,2.572C2173.292,1468.487,2168.809,1479.395,2169.687,1480.759z"/>
		<path style="fill:#FF8894;" d="M2310.097,77.377c-21.069-20.736,0.234-42.334,23.68-14.887
			c15.032,17.599,17.678,45.867,15.698,46.328c-6.329,1.471-10.729,3.2-30.113,0.6c-14.667-1.968-29.068-6.576-35.311-19.893
			c-3.218-6.863-2.14-14.19,5.302-15.783C2298.606,71.76,2308.604,78.013,2310.097,77.377z"/>
		<path style="fill:#FF8894;" d="M95.27,585.049c-15.436-25.212,10.454-41.024,26.574-8.726
			c10.336,20.709,6.076,48.779,4.041,48.748c-6.496-0.101-11.184,0.514-29.365-6.693c-13.757-5.452-26.618-13.403-29.46-27.834
			c-1.464-7.437,1.351-14.286,8.957-14.034C85.476,576.823,93.668,585.306,95.27,585.049z"/>
		<path style="fill:#FF8894;" d="M1050.044,1590.76c-0.165-29.562,30.17-29.699,27.256,6.281
			c-1.869,23.069-20.038,44.886-21.762,43.807c-5.506-3.447-9.836-5.347-21.667-20.92c-8.952-11.783-15.844-25.241-10.81-39.061
			c2.594-7.122,8.548-11.526,14.926-7.376C1045.919,1578.652,1048.54,1590.151,1050.044,1590.76z"/>
		<path style="fill:#FF8894;" d="M1685.939,409.148c-17.493-23.83,6.981-41.755,25.75-10.922
			c12.034,19.77,10.14,48.099,8.111,48.238c-6.482,0.443-11.101,1.449-29.823-4.209c-14.166-4.281-27.647-11.127-31.688-25.269
			c-2.083-7.288,0.15-14.349,7.75-14.736C1675.49,401.771,1684.364,409.539,1685.939,409.148z"/>
		<path style="fill:#FF8894;" d="M1351.251,840.813c-13.951-26.063,12.81-40.351,27.035-7.174
			c9.121,21.272,3.244,49.048,1.215,48.899c-6.479-0.476-11.195-0.134-28.929-8.379c-13.419-6.239-25.798-14.921-27.8-29.492
			c-1.032-7.509,2.175-14.184,9.754-13.493C1341.95,832.033,1349.637,840.977,1351.251,840.813z"/>
		<path style="fill:#FF8894;" d="M2491.547,1422.376c17.276-23.988,41.874-6.234,18.329,21.129
			c-15.096,17.543-42.629,24.475-43.387,22.588c-2.42-6.029-4.8-10.114-5.191-29.667c-0.295-14.795,2.06-29.731,14.268-37.935
			c6.291-4.228,13.696-4.281,16.407,2.829C2495.344,1410.162,2490.691,1420.999,2491.547,1422.376z"/>
		<path style="fill:#FF8894;" d="M310.956,841.614c-3.777-29.32,26.315-33.163,27.82,2.902
			c0.965,23.125-14.401,46.999-16.244,46.139c-5.887-2.748-10.416-4.105-24.062-18.114c-10.326-10.601-18.811-23.115-15.504-37.446
			c1.704-7.386,7.074-12.485,13.912-9.146C305.382,830.102,309.389,841.193,310.956,841.614z"/>
		<path style="fill:#FF8894;" d="M1632.987,1636.697c27.801-10.051,38.084,18.49,3.204,27.787
			c-22.364,5.96-49.004-3.857-48.564-5.843c1.406-6.343,1.746-11.059,12.46-27.419c8.108-12.38,18.482-23.38,33.189-23.262
			c7.58,0.061,13.723,4.197,11.947,11.596C1643.016,1628.757,1633.057,1635.076,1632.987,1636.697z"/>
		<path style="fill:#FF8894;" d="M1017.552,112.396c22.065-19.673,42.229,2.991,13.313,24.599
			c-18.54,13.854-46.92,14.654-47.251,12.646c-1.055-6.41-2.494-10.914,1.363-30.087c2.919-14.507,8.456-28.578,22.151-33.94
			c7.058-2.763,14.298-1.211,15.404,6.318C1023.906,101.295,1017.015,110.865,1017.552,112.396z"/>
	</g>
</g>
</svg>
